<?xml version="1.0" standalone="no"?>
<!DOCTYPE svg PUBLIC "-//W3C//DTD SVG 20010904//EN"
 "http://www.w3.org/TR/2001/REC-SVG-20010904/DTD/svg10.dtd">
<svg version="1.0" xmlns="http://www.w3.org/2000/svg"
 width="200.000000pt" height="200.000000pt" viewBox="0 0 200.000000 200.000000"
 preserveAspectRatio="xMidYMid meet">
<metadata>
Created by potrace 1.11, written by Peter Selinger 2001-2013
</metadata>
<g transform="translate(0.000000,200.000000) scale(0.100000,-0.100000)"
fill="#000000" stroke="none">
<path d="M872 1885 c-117 -26 -308 -141 -287 -174 11 -19 36 -12 78 23 118 95
275 133 437 106 83 -14 184 -62 254 -120 54 -45 61 -47 70 -24 7 19 -43 68
-115 115 -115 74 -296 104 -437 74z"/>
<path d="M255 1706 c-22 -22 -23 -31 -21 -127 2 -106 9 -133 50 -177 20 -23
21 -34 23 -260 2 -299 0 -276 21 -301 27 -32 69 -35 98 -6 27 27 25 7 25 329
l0 210 30 33 c38 43 43 68 44 186 0 93 -1 100 -24 119 -16 12 -32 17 -45 13
-24 -7 -18 -7 -110 -1 -61 4 -71 2 -91 -18z m56 -33 c1 -5 2 -38 3 -75 2 -67
17 -101 36 -82 5 5 10 43 12 84 2 59 6 75 18 75 12 0 15 -15 16 -73 1 -76 14
-106 36 -84 8 8 13 41 13 85 0 57 3 72 15 72 12 0 15 -18 15 -100 0 -99 0
-100 -35 -145 l-35 -45 1 -248 c1 -260 -5 -297 -39 -269 -13 11 -15 50 -15
250 -1 130 -1 247 -1 259 -1 12 -16 39 -33 59 -31 35 -33 42 -37 126 -1 49 0
95 3 103 6 16 25 21 27 8z"/>
<path d="M1549 1717 c-59 -29 -86 -142 -90 -374 -2 -84 0 -94 22 -120 24 -28
25 -34 24 -184 -2 -169 7 -204 50 -215 14 -3 35 -4 48 0 48 12 49 21 49 447
-1 256 -4 405 -11 417 -15 28 -63 43 -92 29z m48 -49 c12 -16 12 -777 0 -796
-6 -9 -13 -9 -28 -2 -18 10 -19 23 -19 181 0 167 0 170 -25 196 -23 26 -24 32
-20 122 9 184 14 217 42 279 16 33 34 41 50 20z"/>
<path d="M880 1688 c-171 -67 -312 -365 -265 -563 6 -27 19 -64 28 -81 24 -47
97 -114 152 -140 119 -57 203 -11 254 138 l18 53 76 6 c140 12 225 89 242 219
14 116 -103 296 -235 359 -77 36 -192 40 -270 9z m257 -55 c125 -62 185 -200
133 -308 -31 -65 -75 -88 -174 -92 -124 -6 -137 -4 -174 24 -45 34 -108 41
-167 18 -32 -12 -45 -22 -45 -36 0 -23 10 -23 73 -4 40 12 54 12 80 2 l31 -13
-35 -24 c-38 -27 -69 -59 -69 -72 0 -24 33 -17 72 15 24 20 55 38 69 42 l26 6
-19 -63 c-30 -98 -47 -125 -85 -141 -51 -20 -90 -10 -134 34 -69 69 -86 184
-46 319 21 73 80 190 107 215 16 15 17 14 17 -2 0 -10 3 -40 8 -68 5 -27 9
-59 9 -70 1 -25 34 -32 43 -9 3 9 1 51 -6 92 -17 100 -7 125 61 150 70 26 152
20 225 -15z m181 -371 c-13 -25 -40 -59 -61 -76 -33 -26 -48 -31 -123 -36 -96
-6 -105 -12 -126 -85 -15 -50 -52 -111 -76 -124 -28 -15 -71 -21 -77 -10 -4 5
0 9 9 9 22 0 72 46 84 77 6 16 16 48 22 72 7 24 24 56 38 71 24 24 36 27 102
29 42 1 89 9 107 18 42 20 88 72 105 119 13 37 13 37 16 10 2 -15 -7 -48 -20
-74z"/>
<path d="M989 1522 c-24 -21 -32 -39 -36 -73 -5 -41 -2 -50 23 -78 36 -39 78
-52 123 -37 79 26 101 130 40 187 -43 40 -106 41 -150 1z m124 -43 c24 -29 21
-56 -9 -85 -42 -43 -104 -15 -104 48 0 60 73 84 113 37z"/>
<path d="M537 963 c-13 -12 -7 -23 33 -67 74 -80 211 -155 320 -175 19 -3 76
-6 125 -5 117 0 213 30 313 97 77 52 92 71 73 90 -8 8 -22 2 -53 -21 -229
-172 -519 -161 -720 27 -64 60 -78 68 -91 54z"/>
<path d="M1785 501 c-10 -9 -4 -31 8 -31 20 0 17 -231 -3 -239 -8 -3 -16 -12
-18 -19 -3 -18 90 -12 96 6 2 6 -3 12 -12 12 -14 0 -16 19 -16 138 l0 138 -25
0 c-14 0 -28 -2 -30 -5z"/>
<path d="M138 473 c-7 -9 -6 -14 5 -19 22 -8 24 -206 2 -224 -27 -23 -4 -30
96 -30 l99 0 0 30 c0 32 -23 42 -34 15 -4 -11 -20 -14 -60 -13 l-55 2 2 47 c1
45 2 46 31 47 87 1 96 2 96 17 0 12 -14 15 -64 15 l-64 0 1 45 1 45 53 0 c42
0 53 -3 53 -16 0 -9 7 -14 18 -12 15 3 17 10 13 51 -1 18 -178 18 -193 0z"/>
<path d="M979 474 c-10 -12 -8 -16 9 -21 21 -5 22 -11 22 -115 0 -90 -3 -109
-14 -105 -8 3 -16 -2 -19 -14 -5 -17 0 -19 43 -19 32 0 50 5 53 14 4 9 -1 16
-11 18 -13 3 -16 17 -17 81 -1 42 1 77 4 77 3 -1 27 -30 54 -65 26 -36 52 -65
56 -65 5 0 31 29 57 65 26 36 50 65 53 65 3 0 6 -33 6 -72 0 -58 -4 -76 -17
-86 -30 -22 -20 -32 31 -32 34 0 51 4 55 15 4 10 -1 15 -14 15 -19 0 -20 7
-20 110 0 91 3 110 15 110 8 0 15 9 15 19 0 13 -6 18 -17 16 -10 -2 -21 -4
-25 -4 -3 -1 -35 -39 -69 -86 -35 -47 -67 -84 -71 -83 -4 2 -36 41 -73 87 -67
87 -85 100 -106 75z"/>
<path d="M433 352 c-30 -5 -63 -48 -63 -82 0 -15 10 -36 23 -48 18 -17 34 -21
95 -21 56 0 72 4 72 15 0 8 -7 14 -15 14 -12 0 -15 13 -15 59 0 59 0 60 -29
59 -15 -1 -32 1 -37 4 -5 2 -19 2 -31 0z m56 -54 c14 -37 -5 -68 -41 -68 -20
0 -48 26 -48 45 0 43 74 62 89 23z"/>
<path d="M616 341 c-24 -27 -19 -50 14 -69 32 -18 40 -42 15 -42 -8 0 -15 5
-15 10 0 6 -8 10 -18 10 -20 0 -26 -30 -8 -42 6 -4 25 -8 43 -8 32 0 52 20 47
48 -1 6 -2 16 -3 21 0 5 -15 14 -32 21 -23 10 -27 16 -18 24 8 8 13 8 16 -1 7
-20 33 -15 33 6 0 35 -49 49 -74 22z"/>
<path d="M743 352 c-28 -4 -30 -22 -3 -29 11 -3 32 -30 50 -64 30 -58 30 -58
12 -93 -9 -20 -25 -36 -34 -36 -26 0 -22 -28 5 -32 35 -5 67 3 67 18 0 8 -4
14 -10 14 -5 0 11 43 37 95 33 67 53 95 65 95 24 0 18 24 -7 30 -31 9 -75 -1
-75 -16 0 -8 7 -14 15 -14 13 0 12 -7 -6 -42 l-21 -42 -20 38 c-13 25 -16 41
-9 45 26 16 -22 40 -66 33z"/>
<path d="M1435 352 c-32 -7 -61 -39 -63 -72 -4 -57 69 -101 118 -70 20 12 5
25 -31 25 -43 0 -36 17 13 34 24 9 45 16 46 17 2 2 1 12 -3 23 -8 25 -52 49
-80 43z m35 -41 c0 -5 -13 -14 -30 -20 -24 -8 -30 -7 -30 4 0 7 6 16 13 18 21
9 47 8 47 -2z"/>
<path d="M1592 340 c-34 -21 -44 -56 -26 -98 15 -36 28 -41 116 -41 46 0 67 4
65 12 -1 7 -8 15 -16 18 -10 4 -14 23 -14 63 0 51 -2 57 -19 53 -10 -3 -32 -2
-47 3 -21 6 -37 3 -59 -10z m76 -32 c28 -28 7 -78 -33 -78 -27 0 -45 18 -45
45 0 27 18 45 45 45 12 0 26 -5 33 -12z"/>
</g>
</svg>
